<svg xmlns="http://www.w3.org/2000/svg" x="0px" y="0px" width="100" height="100" fill='#fff' viewBox="2,2,44,44">
<path d="M24,4c-6.22,0 -11.76969,2.8293 -15.42969,7.2793l5.79883,10.05078c1.18,-4.22 5.04086,-7.33008 9.63086,-7.33008h17.31055c-3.45,-5.98 -9.91055,-10 -17.31055,-10zM6.67969,14.00977c-1.71,2.94 -2.67969,6.35023 -2.67969,9.99023c0,9.92 7.20945,18.1507 16.68945,19.7207l5.81055,-10.05078c-0.8,0.21 -1.64,0.33008 -2.5,0.33008c-3.69,0 -6.92039,-2.01977 -8.65039,-5.00977l-0.00976,0.00977zM24,17c-3.86599,0 -7,3.13401 -7,7c0,3.86599 3.13401,7 7,7c3.86599,0 7,-3.13401 7,-7c0,-3.86599 -3.13401,-7 -7,-7zM31.13086,17c1.77,1.81 2.86914,4.28 2.86914,7c0,1.82 -0.49961,3.52023 -1.34961,4.99023l0.00977,0.00977l-8.66016,15c11.05,0 20,-8.95 20,-20c0,-2.46 -0.44977,-4.82 -1.25977,-7z"></path>
</svg>
